HIERARCHY
ROOT Hips
{
	OFFSET 0.00000 0.00000 0.00000
	CHANNELS 6 Xposition Yposition Zposition Zrotation Yrotation Xrotation 
	JOINT LHipJoint
	{
		OFFSET 0 0 0
		CHANNELS 3 Zrotation Yrotation Xrotation
		JOINT LeftHip
		{
			OFFSET 1.42489 -1.84941 0.69647
			CHANNELS 3 Zrotation Yrotation Xrotation
			JOINT LeftKnee
			{
				OFFSET 2.44443 -6.71602 0.00000
				CHANNELS 3 Zrotation Yrotation Xrotation
				JOINT LeftAnkle
				{
					OFFSET 2.62838 -7.22137 0.00000
					CHANNELS 3 Zrotation Yrotation Xrotation
					JOINT LeftToe
					{
						OFFSET 0.24036 -0.66037 2.29953
						CHANNELS 3 Zrotation Yrotation Xrotation
						End Site
						{
							OFFSET 0.00000 -0.00000 1.19837
						}
					}
				}
			}
		}
	}
	JOINT RHipJoint
	{
		OFFSET 0 0 0
		CHANNELS 3 Zrotation Yrotation Xrotation
		JOINT RightHip
		{
			OFFSET -1.37055 -1.84941 0.69647
			CHANNELS 3 Zrotation Yrotation Xrotation
			JOINT RightKnee
			{
				OFFSET -2.54834 -7.00152 0.00000
				CHANNELS 3 Zrotation Yrotation Xrotation
				JOINT RightAnkle
				{
					OFFSET -2.65692 -7.29983 0.00000
					CHANNELS 3 Zrotation Yrotation Xrotation
					JOINT RightToe
					{
						OFFSET -0.18839 -0.51760 2.29390
						CHANNELS 3 Zrotation Yrotation Xrotation
						End Site
						{
							OFFSET -0.00000 -0.00000 1.18261
						}
					}
				}
			}
		}
	}
	JOINT lowerback
	{
		OFFSET 0 0 0
		CHANNELS 3 Zrotation Yrotation Xrotation
		JOINT Chest
		{
			OFFSET 0.05220 2.15489 0.05011
			CHANNELS 3 Zrotation Yrotation Xrotation
			JOINT Chest2
			{
				OFFSET -0.07653 2.14219 -0.05668
				CHANNELS 3 Zrotation Yrotation Xrotation
				JOINT lowerneck
				{
					OFFSET 0 0 0
					CHANNELS 3 Zrotation Yrotation Xrotation
					JOINT Neck
					{
						OFFSET 0.01370 1.58638 0.01447
						CHANNELS 3 Zrotation Yrotation Xrotation
						JOINT Head
						{
							OFFSET 0.23548 1.54190 -0.21747
							CHANNELS 3 Zrotation Yrotation Xrotation
							End Site
							{
								OFFSET 0.07132 1.59823 -0.08163
							}
						}
					}
				}
				JOINT LeftCollar
				{
					OFFSET 0 0 0
					CHANNELS 3 Zrotation Yrotation Xrotation
					JOINT LeftShoulder
					{
						OFFSET 3.47056 1.45357 -0.58896
CHANNELS 3 Zrotation Xrotation Yrotation
						JOINT LeftElbow
						{
OFFSET 0 -5.190690 0.000000
CHANNELS 3 Zrotation Xrotation Yrotation
							JOINT LeftWrist
							{
OFFSET 0 -3.300160 0.000000
CHANNELS 3 Zrotation Xrotation Yrotation
								JOINT lhand
								{
									OFFSET 0 0 0
CHANNELS 3 Zrotation Xrotation Yrotation
									JOINT LFingers
									{
OFFSET 0 -0.707700 0.000000
CHANNELS 3 Zrotation Xrotation Yrotation
										End Site
										{
OFFSET 0 -0.570560 0.000000
										}
									}
								}
								JOINT LThumb
								{
OFFSET 0 0.000000 0.000000
CHANNELS 3 Zrotation Xrotation Yrotation
									End Site
									{
OFFSET 0 -0.579280 0.579280
									}
								}
							}
						}
					}
				}
				JOINT RightCollar
				{
					OFFSET 0 0 0
					CHANNELS 3 Zrotation Yrotation Xrotation
					JOINT RightShoulder
					{
						OFFSET -2.89018 2.03305 -0.26731
CHANNELS 3 Zrotation Xrotation Yrotation
						JOINT RightElbow
						{
OFFSET 0 -5.239240 0.000000
CHANNELS 3 Zrotation Xrotation Yrotation
							JOINT RightWrist
							{
OFFSET 0 -3.329530 0.000000
CHANNELS 3 Zrotation Xrotation Yrotation
								JOINT rhand
								{
									OFFSET 0 0 0
CHANNELS 3 Zrotation Xrotation Yrotation
									JOINT RFingers
									{
OFFSET 0 -0.607410 0.000000
CHANNELS 3 Zrotation Xrotation Yrotation
										End Site
										{
OFFSET 0 -0.489710 0.000000
										}
									}
								}
								JOINT RThumb
								{
OFFSET 0 0.000000 0.000000
CHANNELS 3 Zrotation Xrotation Yrotation
									End Site
									{
OFFSET 0 -0.497190 0.497190
									}
								}
							}
						}
					}
				}
			}
		}
	}
}
MOTION
Frames: 13
Frame Time: 0.008333333333333333
-1.550300 17.466100 16.049600 -3.581400 4.336400 2.151100 0.000000 0.000000 0.000000 -15.317600 1.658600 -5.900300 1.233400 7.043000 19.842900 0.815600 0.467600 -17.242200 0.191500 -2.818300 -7.773200 0.000000 0.000000 0.000000 24.693800 -2.267700 -10.223200 -2.302700 -9.470100 27.277100 -1.460300 -3.894500 -24.518100 -0.057200 -1.542900 4.243900 5.454200 0.354800 -4.048400 -0.220400 0.160900 2.056900 -3.277900 0.243800 4.426900 0.585500 1.447000 -11.711400 5.312000 0.964400 15.279700 1.694000 0.948500 6.562600 -0.000000 -0.000000 0.000000 16.140500 -2.107400 -48.780600 14.745100 -23.789800 3.122400 -0.803400 -6.063000 8.599100 0.000000 0.000000 0.000000 -7.125000 0.000000 0.000000 -19.717200 21.518600 -11.814100 -0.000000 -0.000000 0.000000 -12.386600 4.634400 40.477400 -16.773600 -26.558400 -3.985600 -0.798900 3.714400 8.114700 0.000000 0.000000 0.000000 7.125000 0.000000 -0.000000 21.893700 37.213200 4.458500
-1.556727 17.455358 16.069624 -3.645031 4.480646 2.128970 0.000000 0.000000 0.000000 -15.195705 1.586916 -6.033596 1.283513 7.179253 20.247459 0.841198 0.272549 -17.435927 0.194685 -2.841555 -7.837993 0.000000 0.000000 0.000000 24.850710 -2.471835 -10.290750 -2.225758 -9.321402 26.805849 -1.267298 -5.372319 -23.822736 -0.002000 0.287287 -0.789247 5.498054 0.409083 -4.174791 -0.213085 0.224478 1.989144 -3.289950 0.275332 4.434614 0.669681 1.287716 -11.897381 5.184975 0.722847 15.868361 1.627640 0.839476 6.791355 0.000000 0.000000 0.000000 16.239032 -2.298873 -49.126868 14.680683 -23.699359 3.096476 -0.925213 -6.182341 8.455496 0.000000 0.000000 0.000000 -7.125000 0.000000 0.000000 -19.820176 21.653894 -11.818354 0.000000 0.000000 0.000000 -12.204924 4.761707 40.302933 -16.675506 -26.428003 -3.941844 -1.259169 3.932799 8.075969 0.000000 0.000000 0.000000 7.125000 0.000000 0.000000 21.513158 37.209759 4.373271
-1.559842 17.451016 16.091161 -3.617468 4.508196 2.045656 0.000000 0.000000 0.000000 -15.207155 1.603745 -5.857754 1.283800 7.180071 20.249842 0.849139 0.258975 -17.512983 0.195000 -2.843884 -7.844380 0.000000 0.000000 0.000000 24.832139 -2.573623 -10.156973 -2.231797 -9.332993 26.842651 -1.282435 -5.338591 -23.923773 -0.002000 0.287774 -0.790625 5.430611 0.439439 -4.281053 -0.190852 0.258604 2.088956 -3.225707 0.296478 4.602007 0.677445 1.284383 -12.350401 5.127784 0.701344 16.207409 1.615484 0.836222 6.980925 0.000000 0.000000 0.000000 16.268231 -2.627615 -48.970067 14.711461 -23.742599 3.108839 -0.438808 -6.263762 8.572899 0.000000 0.000000 0.000000 -7.125000 0.000000 0.000000 -19.470718 21.542452 -11.636243 0.000000 0.000000 0.000000 -12.114750 4.550105 40.373791 -16.661245 -26.409012 -3.935480 -1.677393 4.024259 8.098848 0.000000 0.000000 0.000000 7.125000 0.000000 0.000000 21.182922 37.260577 4.270050
-1.562713 17.446974 16.118693 -3.601623 4.614183 1.989196 0.000000 0.000000 0.000000 -15.196561 1.625241 -5.715547 1.284931 7.183092 20.258946 0.856364 0.166732 -17.553988 0.200800 -2.885587 -7.960318 0.000000 0.000000 0.000000 24.834013 -2.671201 -10.021455 -2.235131 -9.339618 26.863597 -1.298172 -5.349100 -24.054921 -0.002044 0.291199 -0.800068 5.384464 0.433464 -4.513232 -0.185956 0.236756 2.162239 -3.195997 0.291182 4.808336 0.713205 1.320705 -12.616398 5.058635 0.743623 16.354098 1.596179 0.858418 7.074604 0.000000 0.000000 0.000000 16.236716 -2.883565 -48.413126 14.545980 -23.509868 3.042501 -0.382962 -6.130948 8.556314 0.000000 0.000000 0.000000 -7.125000 0.000000 0.000000 -19.434548 21.557904 -11.604583 0.000000 0.000000 0.000000 -12.008071 4.346532 40.538726 -16.724482 -26.493190 -3.963668 -2.318289 4.073975 8.082907 0.000000 0.000000 0.000000 7.125000 0.000000 0.000000 20.661505 37.290600 4.136737
-1.564842 17.441990 16.148006 -3.626307 4.688240 1.875342 0.000000 0.000000 0.000000 -15.144011 1.658606 -5.503320 1.287387 7.189650 20.278435 0.867829 0.087297 -17.642493 0.202700 -2.898958 -7.997616 0.000000 0.000000 0.000000 24.881054 -2.703829 -9.770023 -2.232890 -9.335223 26.849643 -1.314093 -5.398749 -24.210532 -0.001900 0.282996 -0.777563 5.382790 0.440389 -4.664462 -0.176655 0.235522 2.191790 -3.185218 0.294029 4.925269 0.726705 1.296057 -12.791877 5.007998 0.703446 16.561368 1.578485 0.841221 7.174057 0.000000 0.000000 0.000000 16.166937 -3.075372 -47.820936 14.371416 -23.263216 2.973258 0.056683 -5.991587 8.668530 0.000000 0.000000 0.000000 -7.125000 0.000000 0.000000 -19.117791 21.450329 -11.442173 0.000000 0.000000 0.000000 -11.956215 4.213214 40.661736 -16.847138 -26.655773 -4.018477 -2.606646 3.997917 8.045034 0.000000 0.000000 0.000000 7.125000 0.000000 0.000000 20.418110 37.275305 4.090757
-1.565927 17.438318 16.170775 -3.661757 4.758556 1.802458 0.000000 0.000000 0.000000 -15.089251 1.653701 -5.378011 1.295308 7.210835 20.341558 0.877882 0.028430 -17.723927 0.204310 -2.910267 -8.028936 0.000000 0.000000 0.000000 24.936003 -2.732612 -9.603972 -2.231864 -9.333156 26.843223 -1.321911 -5.459698 -24.308275 -0.002200 0.300711 -0.826323 5.412675 0.460682 -4.760750 -0.174911 0.255227 2.169463 -3.198252 0.305200 4.958980 0.812113 1.222161 -12.979520 4.888572 0.589368 16.863357 1.520292 0.788743 7.309250 0.000000 0.000000 0.000000 16.228765 -3.083583 -47.892870 14.435358 -23.353669 2.998556 0.135621 -6.054758 8.574438 0.000000 0.000000 0.000000 -7.125000 0.000000 0.000000 -19.075593 21.538872 -11.372867 0.000000 0.000000 0.000000 -11.960108 4.104392 40.716363 -16.867025 -26.682172 -4.027467 -2.674649 3.959514 8.039999 0.000000 0.000000 0.000000 7.125000 0.000000 0.000000 20.361699 37.275273 4.078225
-1.567013 17.435174 16.191944 -3.607871 4.807311 1.755964 0.000000 0.000000 0.000000 -15.133226 1.693847 -5.221318 1.287949 7.191246 20.283224 0.881190 -0.021996 -17.740133 0.206600 -2.926464 -8.074154 0.000000 0.000000 0.000000 24.883897 -2.799841 -9.503170 -2.238826 -9.346751 26.886067 -1.336167 -5.444779 -24.411354 -0.001900 0.278326 -0.764664 5.353549 0.477880 -4.867154 -0.190616 0.276693 2.159000 -3.179377 0.315316 5.010117 0.810016 1.222356 -13.067403 4.875263 0.584853 17.003136 1.518683 0.788707 7.370576 0.000000 0.000000 0.000000 16.225336 -3.116298 -47.844640 14.440151 -23.360464 3.000426 0.539870 -6.050244 8.685297 0.000000 0.000000 0.000000 -7.125000 0.000000 0.000000 -18.782986 21.431703 -11.226610 0.000000 0.000000 0.000000 -12.057754 4.019076 40.754983 -16.907107 -26.735156 -4.045423 -2.636486 3.930147 8.067870 0.000000 0.000000 0.000000 7.125000 0.000000 0.000000 20.400154 37.298790 4.074286
-1.570392 17.432005 16.207482 -3.603165 4.884188 1.688139 0.000000 0.000000 0.000000 -15.115692 1.707463 -5.111247 1.290092 7.196977 20.300232 0.886095 -0.078198 -17.769792 0.211587 -2.961112 -8.170651 0.000000 0.000000 0.000000 24.897818 -2.858635 -9.389497 -2.241895 -9.352788 26.905167 -1.343993 -5.479805 -24.493083 -0.001998 0.286142 -0.786336 5.348002 0.473318 -4.882850 -0.205598 0.271222 2.140508 -3.192397 0.312012 4.999140 0.836397 1.211878 -13.139578 4.852108 0.566065 17.039573 1.506102 0.780787 7.395922 0.000000 0.000000 0.000000 16.238628 -3.142517 -47.972845 14.413370 -23.322598 2.989828 0.621483 -6.133815 8.681493 0.000000 0.000000 0.000000 -7.125000 0.000000 0.000000 -18.727280 21.434807 -11.187952 0.000000 0.000000 0.000000 -12.124285 3.927249 40.699407 -16.875727 -26.693735 -4.031412 -2.633637 3.917358 8.041333 0.000000 0.000000 0.000000 7.125000 0.000000 0.000000 20.395198 37.273642 4.086555
-1.576003 17.429732 16.220789 -3.638970 4.932247 1.637318 0.000000 0.000000 0.000000 -15.046483 1.691530 -5.015809 1.291916 7.201832 20.314713 0.891751 -0.112962 -17.814982 0.209019 -2.943266 -8.120810 0.000000 0.000000 0.000000 24.967617 -2.873376 -9.279112 -2.239716 -9.348532 26.891713 -1.350451 -5.523152 -24.568907 -0.001800 0.277354 -0.761995 5.361165 0.481241 -4.931249 -0.209495 0.278544 2.125983 -3.203060 0.316238 5.012375 0.840342 1.211181 -13.142836 4.825474 0.567059 17.097885 1.497705 0.780197 7.415615 0.000000 0.000000 0.000000 16.225730 -3.204203 -48.059636 14.394782 -23.296255 2.982489 0.673037 -6.206096 8.723730 0.000000 0.000000 0.000000 -7.125000 0.000000 0.000000 -18.686460 21.394470 -11.179022 0.000000 0.000000 0.000000 -12.192670 3.891525 40.748391 -16.912314 -26.742068 -4.047789 -2.615650 3.899733 8.025553 0.000000 0.000000 0.000000 7.125000 0.000000 0.000000 20.405515 37.257707 4.097289
-1.582785 17.427423 16.227569 -3.655899 4.910766 1.578489 0.000000 0.000000 0.000000 -14.996138 1.715271 -4.954397 1.298385 7.219078 20.366003 0.897016 -0.124084 -17.864134 0.211469 -2.960801 -8.169594 0.000000 0.000000 0.000000 25.014601 -2.869090 -9.201259 -2.244101 -9.357001 26.918650 -1.353524 -5.547683 -24.607141 -0.002200 0.302076 -0.830037 5.376144 0.513311 -4.859217 -0.226239 0.327958 2.040472 -3.224838 0.336394 4.886638 0.847217 1.222586 -13.074781 4.805122 0.578816 17.306709 1.493146 0.787331 7.471756 0.000000 0.000000 0.000000 16.260071 -3.148847 -48.357696 14.432961 -23.350223 2.997531 0.683718 -6.332607 8.693199 0.000000 0.000000 0.000000 -7.125000 0.000000 0.000000 -18.682837 21.423293 -11.163575 0.000000 0.000000 0.000000 -12.209017 3.972926 40.775843 -16.879735 -26.698972 -4.033144 -2.587358 3.878939 8.023861 0.000000 0.000000 0.000000 7.125000 0.000000 0.000000 20.428020 37.254077 4.104222
-1.590893 17.424436 16.227300 -3.650405 4.882026 1.498253 0.000000 0.000000 0.000000 -14.971877 1.709914 -4.892867 1.306876 7.241764 20.433638 0.899829 -0.096310 -17.901885 0.214019 -2.978497 -8.218909 0.000000 0.000000 0.000000 25.038050 -2.859631 -9.158955 -2.258664 -9.385283 27.008205 -1.356474 -5.561333 -24.638071 -0.002400 0.314769 -0.864926 5.358381 0.558312 -4.738615 -0.254645 0.399550 1.981931 -3.238440 0.367293 4.763510 0.848598 1.219831 -13.034223 4.873747 0.554324 17.518037 1.515486 0.785624 7.534371 0.000000 0.000000 0.000000 16.335671 -3.204129 -48.699785 14.440154 -23.360471 3.000462 0.767217 -6.495683 8.754871 0.000000 0.000000 0.000000 -7.125000 0.000000 0.000000 -18.617641 21.364329 -11.146714 0.000000 0.000000 0.000000 -12.287116 4.014991 41.059367 -16.885359 -26.706364 -4.035688 -2.628121 3.827181 8.056962 0.000000 0.000000 0.000000 7.125000 0.000000 0.000000 20.403932 37.287974 4.080829
-1.601022 17.421620 16.228180 -3.658275 4.959157 1.424708 0.000000 0.000000 0.000000 -14.917277 1.664882 -4.853386 1.317940 7.271101 20.521063 0.903060 -0.134570 -17.920994 0.217521 -3.002325 -8.285375 0.000000 0.000000 0.000000 25.084161 -2.942820 -9.127701 -2.266501 -9.400443 27.056108 -1.362501 -5.554118 -24.680747 -0.002140 0.297647 -0.817800 5.328029 0.558659 -4.698725 -0.263344 0.404999 1.978461 -3.230157 0.368479 4.737384 0.845237 1.180752 -13.191444 4.878157 0.487409 17.737290 1.515339 0.759675 7.636068 0.000000 0.000000 0.000000 16.472988 -3.334733 -48.972742 14.511185 -23.460747 3.028662 0.771552 -6.768481 8.685078 0.000000 0.000000 0.000000 -7.125000 0.000000 0.000000 -18.623248 21.430381 -11.120716 0.000000 0.000000 0.000000 -12.478380 3.870228 41.365633 -16.963819 -26.810084 -4.071008 -2.696873 3.638798 8.065187 0.000000 0.000000 0.000000 7.125000 0.000000 0.000000 20.350532 37.300468 4.062454
-1.611757 17.420249 16.233431 -3.651828 5.071451 1.375509 0.000000 0.000000 0.000000 -14.873229 1.655837 -4.787820 1.315326 7.264277 20.500606 0.901877 -0.188331 -17.890880 0.220774 -3.024746 -8.347737 0.000000 0.000000 0.000000 25.117885 -3.045617 -9.089535 -2.267794 -9.402989 27.064289 -1.367880 -5.552729 -24.721203 -0.001700 0.269020 -0.739095 5.300548 0.569937 -4.752411 -0.286837 0.420614 1.941752 -3.237700 0.374857 4.730849 0.821968 1.162774 -13.242256 4.915852 0.455266 17.834208 1.530191 0.748849 7.677642 0.000000 0.000000 0.000000 16.640771 -3.561742 -49.078777 14.551491 -23.517657 3.044691 0.713980 -6.929531 8.647494 0.000000 0.000000 0.000000 -7.125000 0.000000 0.000000 -18.667586 21.466357 -11.134032 0.000000 0.000000 0.000000 -12.603577 3.781638 41.445711 -17.039151 -26.909360 -4.105037 -2.738460 3.613341 8.089112 0.000000 0.000000 0.000000 7.125000 0.000000 0.000000 20.323374 37.325809 4.043020
